<svg xmlns="http://www.w3.org/2000/svg" width="800" height="480" viewBox="0 0 800 480">
<rect width="100%" height="100%" fill="white"/>
<text x="400" y="24" text-anchor="middle" font-size="18">Phase 3C-OOF Oracle vs predicted distribution</text>
<line x1="70" y1="385" x2="750" y2="385" stroke="black"/>
<rect x="106.0" y="374.5" width="28" height="10.5" fill="#4C78A8"/><rect x="142.0" y="377.7" width="28" height="7.3" fill="#54A24B"/><rect x="242.0" y="319.4" width="28" height="65.6" fill="#4C78A8"/><rect x="278.0" y="354.2" width="28" height="30.8" fill="#54A24B"/><rect x="378.0" y="240.9" width="28" height="144.1" fill="#4C78A8"/><rect x="414.0" y="206.9" width="28" height="178.1" fill="#54A24B"/><rect x="514.0" y="197.2" width="28" height="187.8" fill="#4C78A8"/><rect x="550.0" y="73.3" width="28" height="311.7" fill="#54A24B"/><rect x="650.0" y="45.0" width="28" height="340.0" fill="#4C78A8"/><rect x="686.0" y="164.8" width="28" height="220.2" fill="#54A24B"/><text x="120.0" y="369.5" text-anchor="middle" font-size="11">13</text><text x="156.0" y="372.7" text-anchor="middle" font-size="11">9</text><text x="138.0" y="410" text-anchor="middle" font-size="13">10</text><text x="256.0" y="314.4" text-anchor="middle" font-size="11">81</text><text x="292.0" y="349.2" text-anchor="middle" font-size="11">38</text><text x="274.0" y="410" text-anchor="middle" font-size="13">20</text><text x="392.0" y="235.9" text-anchor="middle" font-size="11">178</text><text x="428.0" y="201.9" text-anchor="middle" font-size="11">220</text><text x="410.0" y="410" text-anchor="middle" font-size="13">40</text><text x="528.0" y="192.2" text-anchor="middle" font-size="11">232</text><text x="564.0" y="68.3" text-anchor="middle" font-size="11">385</text><text x="546.0" y="410" text-anchor="middle" font-size="13">80</text><text x="664.0" y="40.0" text-anchor="middle" font-size="11">420</text><text x="700.0" y="159.8" text-anchor="middle" font-size="11">272</text><text x="682.0" y="410" text-anchor="middle" font-size="13">160</text>
<rect x="260" y="440" width="14" height="14" fill="#4C78A8"/><text x="280" y="452" font-size="13">Oracle</text>
<rect x="390" y="440" width="14" height="14" fill="#54A24B"/><text x="410" y="452" font-size="13">Predicted</text>
</svg>